<svg width="109" height="86" viewBox="0 0 109 86" fill="none" xmlns="http://www.w3.org/2000/svg">
<path d="M75.4688 5.19115C87.0623 5.19115 95.8873 14.0161 95.8873 25.6097C95.8873 40.664 82.0442 53.8149 57.4728 75.4447L57.2997 75.6178L57.1267 75.7908L54.3581 78.5594L51.4164 75.6178L51.2434 75.4447L51.0703 75.2717C26.6719 53.8149 12.8288 40.664 12.8288 25.6097C12.8288 13.8431 21.6538 5.01811 33.4204 5.01811C39.8228 5.01811 46.3983 8.1328 50.5512 12.9779L54.5311 17.6499L58.511 12.9779C62.4909 8.1328 69.0663 5.19115 75.4688 5.19115ZM75.4688 0C67.509 0 59.5492 3.80684 54.3581 9.86319C49.1669 3.80684 41.2071 0 33.4204 0C18.8852 0 7.6377 11.0745 7.6377 25.6097C7.6377 43.4326 23.5572 57.7948 47.7826 79.4246L54.3581 86.0001L60.9335 79.4246C85.1589 57.7948 101.078 43.4326 101.078 25.6097C101.078 11.0745 89.8309 0 75.4688 0Z" fill="#FE8080"/>
<path d="M1 41.5141L33.9629 41.6893L42.7645 24L54.5 55L63.9919 33.8079L68.6516 41.6893H108" stroke="#5DCCFC" stroke-width="2" stroke-miterlimit="10" stroke-linecap="round"/>
</svg>
