<svg width="177" height="380" viewBox="0 0 177 380" fill="none" xmlns="http://www.w3.org/2000/svg">
<g clip-path="url(#clip0_1_2148)">
<path d="M-119.54 164.8C-122.528 169.494 -125.713 174.074 -128.869 178.635C-138.181 192.095 -148.79 206.507 -152.207 222.937C-155.643 239.4 -154.524 256.637 -148.339 272.531C-141.131 291.092 -126.901 306.481 -111.063 318.002C-99.5657 326.361 -85.9383 331.926 -71.8909 333.106C-55.7899 334.456 -43.026 330.631 -30.4761 320.469C-21.7148 313.382 -13.9717 304.959 -4.58306 298.735C12.5117 287.391 33.5706 284.151 53.6482 279.693C65.7238 277.007 77.8559 273.637 88.7807 267.78C94.2761 264.84 99.2273 261.226 103.798 256.97C107.236 253.762 111.149 251.618 114.383 248.099C128.116 233.114 137.464 213.822 140.125 193.375C141.265 184.633 141.163 175.694 139.676 166.956C134.204 134.767 108.603 105.755 76.8429 99.5061C65.8003 97.3245 54.3268 97.7531 43.512 94.5315C27.3459 89.7229 14.3943 77.36 -0.863056 70.0525C-20.6234 60.6011 -44.2894 60.2709 -63.9286 69.1565C-81.8171 77.2572 -98.4872 94.333 -103.582 113.909C-106.387 124.675 -104.763 135.286 -109.213 145.736C-112.051 152.415 -115.636 158.696 -119.526 164.791L-119.54 164.8Z" fill="#62CDFA" fill-opacity="0.17"/>
</g>
<defs>
<clipPath id="clip0_1_2148">
<rect width="307.451" height="250.98" fill="white" transform="translate(-218.195 169.418) rotate(-33.2842)"/>
</clipPath>
</defs>
</svg>
