<svg width="375" height="250" viewBox="0 0 375 250" fill="none" xmlns="http://www.w3.org/2000/svg">
<g filter="url(#filter0_d_1_1579)">
<g clip-path="url(#clip0_1_1579)">
<rect x="28" y="41" width="319" height="160" rx="16" fill="white"/>
<path d="M83.3642 126.89C9.93695 153.876 -54.2013 68.0533 -115.686 95.4811C-152.399 104.329 -226.534 122.997 -229.365 126.89C-232.196 130.783 -234.968 216.989 -236 259.605L309.396 349.409C346.552 303.549 410.336 198.733 368.226 146.355C315.589 80.8824 156.791 99.9049 83.3642 126.89Z" fill="#5DCCFC" fill-opacity="0.41"/>
<path d="M180.557 124.008C117.278 141.829 26.1677 88.9457 -25.5002 112C-56.3523 119.437 -79.8637 120.736 -82.2427 124.008C-84.6216 127.28 -86.951 199.74 -87.8184 235.561L370.502 311.045C401.726 272.498 455.327 184.395 419.94 140.369C375.706 85.3363 244.5 106 180.557 124.008Z" fill="#5DCCFC" fill-opacity="0.41"/>
</g>
</g>
<defs>
<filter id="filter0_d_1_1579" x="-17" y="0" width="409" height="250" filterUnits="userSpaceOnUse" color-interpolation-filters="sRGB">
<feFlood flood-opacity="0" result="BackgroundImageFix"/>
<feColorMatrix in="SourceAlpha" type="matrix" values="0 0 0 0 0 0 0 0 0 0 0 0 0 0 0 0 0 0 127 0" result="hardAlpha"/>
<feOffset dy="4"/>
<feGaussianBlur stdDeviation="22.5"/>
<feComposite in2="hardAlpha" operator="out"/>
<feColorMatrix type="matrix" values="0 0 0 0 0.106736 0 0 0 0 0.664574 0 0 0 0 0.883333 0 0 0 0.08 0"/>
<feBlend mode="normal" in2="BackgroundImageFix" result="effect1_dropShadow_1_1579"/>
<feBlend mode="normal" in="SourceGraphic" in2="effect1_dropShadow_1_1579" result="shape"/>
</filter>
<clipPath id="clip0_1_1579">
<rect x="28" y="41" width="319" height="160" rx="16" fill="white"/>
</clipPath>
</defs>
</svg>
